inDegrees=yes
name=ik_S40_A06_T01
DataType=double
version=3
OpenSimVersion=4.3-2021-08-27-4bc7ad9
endheader
time	pelvis_tilt	pelvis_list	pelvis_rotation	pelvis_tx	pelvis_ty	pelvis_tz	hip_flexion_r	hip_adduction_r	hip_rotation_r	knee_angle_r	knee_angle_r_beta	ankle_angle_r	subtalar_angle_r	mtp_angle_r	hip_flexion_l	hip_adduction_l	hip_rotation_l	knee_angle_l	knee_angle_l_beta	ankle_angle_l	subtalar_angle_l	mtp_angle_l	lumbar_extension	lumbar_bending	lumbar_rotation	arm_flex_r	arm_add_r	arm_rot_r	elbow_flex_r	pro_sup_r	wrist_flex_r	wrist_dev_r	arm_flex_l	arm_add_l	arm_rot_l	elbow_flex_l	pro_sup_l	wrist_flex_l	wrist_dev_l
5.099999999999979	-8.909684082199608	-1.278651863419072	30.98789317511765	0	0.9399999999999999	0	26.73011381620509	-8.828563213264763	-7.834468560157075	31.50314113680745	0.5498335375577593	0	0	0	26.73011381620509	-8.828563213264763	-7.834468560157075	31.50314113680745	0.5498335375577593	0	0	0	-5.511646935454896	0.8683076535328575	7.073366534384625	18.68149544468838	-7.206571830186657	12.25372610177839	57.30089867960101	150.6822642809715	0	0	71.73286429382331	24.86260769483516	11.03932587239631	31.82732859294399	92.28292039854523	0	0
5.119999999999979	-8.998925607858363	-1.246800705404581	30.52001180980955	0	0.9399999999999999	0	26.82831566018996	-8.843895810446103	-7.854979715990337	31.61825463970797	0.5518426471968776	0	0	0	26.82831566018996	-8.843895810446103	-7.854979715990337	31.61825463970797	0.5518426471968776	0	0	0	-5.590208793965563	0.9461151217696019	7.080110937273698	18.87058913567197	-7.279875664953177	12.69494910607547	57.30964510261348	150.4179124595084	0	0	71.68035413035327	28.03448151518224	13.54651726446677	30.2731613438289	91.38840964849781	0	0
5.139999999999978	-9.107499342600306	-1.226528703511226	30.20041582614013	0	0.9399999999999999	0	26.87371427142108	-8.851085685452407	-7.864543258579753	31.67076747178855	0.5527591690162306	0	0	0	26.87371427142108	-8.851085685452407	-7.864543258579753	31.67076747178855	0.5527591690162306	0	0	0	-5.681943924941268	1.035108978107813	6.941893011819913	19.08291958106352	-7.363718765462097	13.17158457372688	57.2978530255699	150.3027881699895	0	0	71.68313347724056	29.49673080731752	14.48220776317411	29.35430025516133	91.26080062009474	0	0
5.159999999999978	-9.211052240215549	-1.206584671899916	29.89928366869212	0	0.9399999999999999	0	26.91782274974616	-8.858540706138157	-7.874190886563325	31.71979011660613	0.553614775576333	0	0	0	26.91782274974616	-8.858540706138157	-7.874190886563325	31.71979011660613	0.553614775576333	0	0	0	-5.771579368913255	1.123760178989699	6.789103858592039	19.30019554196234	-7.428413120634993	13.64659537405943	57.28895784950141	150.1292723719905	0	0	71.56481650143307	31.09139292526834	15.5932568981178	27.59370765438226	90.5596984030084	0	0
5.179999999999978	-9.28778629464353	-1.178702697114836	29.46070429348766	0	0.9399999999999999	0	26.92474488792311	-8.859981077538299	-7.875912953898399	31.72622877904401	0.5537271514352985	0	0	0	26.92474488792311	-8.859981077538299	-7.875912953898399	31.72622877904401	0.5537271514352985	0	0	0	-5.825049091143999	1.183102935973937	6.826538350465798	19.29624864367957	-7.218654717390024	14.31782025292121	57.28911093996057	150.0565757796413	0	0	71.40333096548679	32.43737113770881	16.46185447421065	26.3540694168744	90.08502293005014	0	0
5.199999999999977	-9.323345047162087	-1.171919108190244	29.28083058570041	0	0.9399999999999999	0	26.9315145670152	-8.861386647332161	-7.877595023662876	31.73253370874566	0.5538371932176991	0	0	0	26.9315145670152	-8.861386647332161	-7.877595023662876	31.73253370874566	0.5538371932176991	0	0	0	-5.854656250584618	1.213951541136595	6.766179536366169	19.37009307123811	-7.218444675078238	14.55372094118955	57.26503246471886	149.9159742864357	0	0	71.44900889659529	32.37366078742222	16.47654960576869	25.57494705195191	89.90771304955727	0	0
5.219999999999977	-9.412345737495849	-1.146737577280132	28.9236165890633	0	0.9399999999999999	0	26.9378031101567	-8.86269412728587	-7.879159102173986	31.73837956520092	0.5539392226604423	0	0	0	26.9378031101567	-8.86269412728587	-7.879159102173986	31.73837956520092	0.5539392226604423	0	0	0	-5.921481017854645	1.280758478605205	6.76265789036868	19.53725635216922	-7.294251123743493	14.92213611082896	57.23048395127608	149.7886664015188	0	0	71.32761714694644	33.37937524126018	17.28882358902682	24.77227681847219	89.71980937172582	0	0
5.239999999999976	-9.494852018065169	-1.122432087059448	28.53095478660143	0	0.9399999999999999	0	26.94495302006882	-8.864177621926718	-7.88093536079545	31.7450340190798	0.5540553647905508	0	0	0	26.94495302006882	-8.864177621926718	-7.88093536079545	31.7450340190798	0.5540553647905508	0	0	0	-5.982910810775996	1.344693542155132	6.751030766866356	19.78700818756946	-7.028915435365275	15.60881960763821	56.97460635536567	149.7173006870708	0	0	71.15171037055642	34.14163020764492	18.08796748594078	23.55968952241724	89.89150993434937	0	0
5.259999999999976	-9.581435604699008	-1.0910904675961	28.18625939272703	0	0.9399999999999999	0	26.95427605262682	-8.866113671095967	-7.883253134762389	31.75369710919883	0.5542065642365249	0	0	0	26.95427605262682	-8.866113671095967	-7.883253134762389	31.75369710919883	0.5542065642365249	0	0	0	-6.045392998482228	1.413021391115561	6.763329812234233	20.01259311797017	-7.032292814928405	16.02787264279569	56.83275364557822	149.6627970992755	0	0	71.03781679772159	34.94045752951275	18.98394865898494	22.11061959728034	90.1140929217229	0	0
5.279999999999975	-9.6825955273339	-1.022255459679184	27.68658412022319	0	0.9399999999999999	0	26.96278518590866	-8.867878684759994	-7.885367420266208	31.76160536431915	0.5543445893264622	0	0	0	26.96278518590866	-8.867878684759994	-7.885367420266208	31.76160536431915	0.5543445893264622	0	0	0	-6.105938112018221	1.537819629075578	6.631077668844689	20.17843969978704	-7.098752753411042	16.71413236235764	56.83968191927683	149.6606758192659	0	0	71.18198243214789	35.38904931798247	19.41872025492027	20.48939934291462	90.10929304453572	0	0
5.299999999999975	-9.734880399463993	-0.9844542264170715	27.44157115875706	0	0.9399999999999999	0	26.97265338619997	-8.869923353044316	-7.887818177570669	31.7707772307694	0.5545046685945724	0	0	0	26.97265338619997	-8.869923353044316	-7.887818177570669	31.7707772307694	0.5545046685945724	0	0	0	-6.136223500790717	1.596683355096215	6.627615368321463	20.72900375140158	-6.841670748902311	16.99346916982965	56.30917969438382	149.7376208783823	0	0	71.12110240020071	35.8456932562846	19.91167900681359	19.61325974714168	89.66171427961987	0	0
5.319999999999975	-9.759819867750865	-0.9668145072447265	27.24678413160786	0	0.9399999999999999	0	26.98386004253778	-8.87224033989564	-7.89059819714549	31.78120204499004	0.5546866159266313	0	0	0	26.98386004253778	-8.87224033989564	-7.89059819714549	31.78120204499004	0.5546866159266313	0	0	0	-6.150887907499433	1.613488091225057	6.724653382238471	20.91693154466834	-6.788735799790368	16.98645624950588	56.20307394914424	149.8308537746801	0	0	70.81398899316622	36.33043586946016	20.71945488640057	17.50819915184483	88.59737843423571	0	0
5.339999999999974	-9.781154458828192	-0.9335087177644837	27.01164604662573	0	0.9399999999999999	0	26.99518724296309	-8.874580537068955	-7.893407473750667	31.79173422253533	0.5548704371022011	0	0	0	26.99518724296309	-8.874580537068955	-7.893407473750667	31.79173422253533	0.5548704371022011	0	0	0	-6.155095086266247	1.644989397952398	6.799271277538797	21.0572575834632	-6.721759502101722	17.09041120036373	56.09366356223886	149.8330805094306	0	0	70.51176911077604	37.10883989131225	21.10390308756218	15.20222723258417	88.60138607324362	0	0
5.359999999999974	-9.770855213242488	-0.9029084890602239	26.90475365154022	0	0.9399999999999999	0	27.00025223454272	-8.875619906036885	-7.894658542976098	31.7964685766881	0.5549530671701224	0	0	0	27.00025223454272	-8.875619906036885	-7.894658542976098	31.7964685766881	0.5549530671701224	0	0	0	-6.132743333298571	1.667663889738984	6.80305107787408	21.09664326020643	-6.630568600326152	17.15570620862274	56.00808837523892	149.8486230961013	0	0	70.30834484362072	37.25901235326415	21.17751125271257	14.47756127100329	88.73137403390896	0	0
5.379999999999973	-9.7816052441203	-0.8767626985060314	26.71024655984672	0	0.9399999999999999	0	27.01312699861404	-8.87814536220046	-7.897750445072143	31.8089832206712	0.5551714889123425	0	0	0	27.01312699861404	-8.87814536220046	-7.897750445072143	31.8089832206712	0.5551714889123425	0	0	0	-6.130997780660608	1.680837331300818	6.958372195052409	21.08144086317687	-6.665210672602606	17.21545147900371	56.03809183138968	149.7987648521617	0	0	70.18239717200372	37.35278327716096	20.70769583386825	15.17103539518473	90.49517387778613	0	0
5.399999999999973	-9.782943247389868	-0.8709006424583979	26.71924994026579	0	0.9399999999999999	0	27.0246378472543	-8.880494360454021	-7.900584830404592	31.81977613344986	0.5553598607762107	0	0	0	27.0246378472543	-8.880494360454021	-7.900584830404592	31.81977613344986	0.5553598607762107	0	0	0	-6.131379751464377	1.688283141170428	6.94830494370207	21.14358600631058	-6.605751156850936	17.19673658673021	55.96318610408683	149.8136370783989	0	0	70.23081584689348	37.29024478246815	20.64726745312185	15.23414205017735	92.29272516094974	0	0
